{"title":"Masters of Sex S01E11 HDTV 480p x264 AAC [GWC].mp4","uid":9322511,"size":148248576,"categoryP":"video","categoryS":"tv_shows","magnet":"?xt=urn:btih:7cc1419905d8a50c820a8c5e8ffd56430bf0a202&amp;dn=Masters+of+Sex+S01E11+HDTV+480p+x264+AAC+%5BGWC%5D.mp4&amp;tr=udp%3A%2F%2Ftracker.openbittorrent.com%3A80&amp;tr=udp%3A%2F%2Fopen.demonii.com%3A1337&amp;tr=udp%3A%2F%2Ftracker.coppersurfer.tk%3A6969&amp;tr=udp%3A%2F%2Fexodus.desync.com%3A6969","seeders":0,"leechers":0,"uploader":"canc232","files":1,"time":1386574979,"description":"Masters of Sex S01E11 HDTV 480p x264 AAC [GWC]\n\n\n\n\nSCREENS :\n &lt;a href=&quot;\nhttp://s20.postimg.org/ps5yrt3p9/Masters_of_Sex_11_57_49.jpg&quot; rel=&quot;nofollow&quot; target=&quot;_NEW&quot;&gt;\nhttp://s20.postimg.org/ps5yrt3p9/Masters_of_Sex_11_57_49.jpg&lt;/a&gt;\n &lt;a href=&quot;\nhttp://s20.postimg.org/9v76v3bb1/Masters_of_Sex_11_58_14.jpg&quot; rel=&quot;nofollow&quot; target=&quot;_NEW&quot;&gt;\nhttp://s20.postimg.org/9v76v3bb1/Masters_of_Sex_11_58_14.jpg&lt;/a&gt;\n &lt;a href=&quot;\nhttp://s20.postimg.org/ev4n31gxp/Masters_of_Sex_11_59_49.jpg&quot; rel=&quot;nofollow&quot; target=&quot;_NEW&quot;&gt;\nhttp://s20.postimg.org/ev4n31gxp/Masters_of_Sex_11_59_49.jpg&lt;/a&gt;\n\n\n\n\nMEDIA INFO :\n\nGeneral\nFormat : MPEG-4 \nFormat profile : Base Media\nFile size : 141 MiB \nDuration : 52mn 30s \nOverall bit rate mode : Variable \nOverall bit rate : 376 Kbps \n\nVideo\nFormat : AVC\nFormat profile : &lt;a class=&quot;__cf_email__&quot; href=&quot;/cdn-cgi/l/email-protection&quot; data-cfemail=&quot;4e062729260e027d607e&quot;&gt;[email&amp;#160;protected]&lt;/a&gt;&lt;script data-cfhash='f9e31' type=&quot;text/javascript&quot;&gt;\n/* &lt;![CDATA[ */!function(){try{var t=&quot;currentScript&quot;in document?document.currentScript:function(){for(var t=document.getElementsByTagName(&quot;script&quot;),e=t.length;e--;)if(t[e].getAttribute(&quot;data-cfhash&quot;))return t[e]}();if(t&amp;&amp;t.previousSibling){var e,r,n,i,c=t.previousSibling,a=c.getAttribute(&quot;data-cfemail&quot;);if(a){for(e=&quot;&quot;,r=parseInt(a.substr(0,2),16),n=2;a.length-n;n+=2)i=parseInt(a.substr(n,2),16)^r,e+=String.fromCharCode(i);e=document.createTextNode(e),c.parentNode.replaceChild(e,c)}t.parentNode.removeChild(t);}}catch(u){}}()/* ]]&gt; */&lt;/script&gt; \nFormat settings, CABAC : Yes \nFormat settings, ReFrames : 4 frames\nDuration : 52mn 29s \nBit rate : 313 Kbps  \nWidth : 720 pixels \nHeight : 404 pixels \nDisplay aspect ratio : 16:9\nFrame rate : 23.976 fps \nStream size : 118 MiB (83%) \nTitle : Masters of Sex S01E11 HDTV 480p x264 AAC [GWC] \nWriting library : x264 core\n\nAudio \nFormat : AAC\nFormat profile : HE-AAC / LC \nDuration : 52mn 30s \nBit rate mode : Variable \nChannel(s) : 2 channels \nSampling rate : 48.0 KHz / 24.0 KHz \nStream size : 22.5 MiB (16%) \nLanguage : English ","torrent":{"xt":"urn:btih:7cc1419905d8a50c820a8c5e8ffd56430bf0a202","amp;dn":"Masters+of+Sex+S01E11+HDTV+480p+x264+AAC+%5BGWC%5D.mp4","amp;tr":["udp%3A%2F%2Ftracker.openbittorrent.com%3A80","udp%3A%2F%2Fopen.demonii.com%3A1337","udp%3A%2F%2Ftracker.coppersurfer.tk%3A6969","udp%3A%2F%2Fexodus.desync.com%3A6969"],"infoHash":"7cc1419905d8a50c820a8c5e8ffd56430bf0a202","infoHashBuffer":{"type":"Buffer","data":[124,193,65,153,5,216,165,12,130,10,140,94,143,253,86,67,11,240,162,2]},"announce":[],"urlList":[]}}